<svg xmlns="http://www.w3.org/2000/svg" viewBox="0 0 198.5 198.5">
  <path fill="#E21438" d="M29.41,57.78v82.85l69.84,40.32V98.1L29.41,57.78z M71.53,123.54l3.76,28.06l-21.9-12.65l3.75-23.55c-2.97-4.33-4.89-9.79-4.89-14.52c0-7.93,5.42-11.22,12.1-7.37c6.68,3.86,12.1,13.41,12.1,21.33C76.43,119.58,74.49,122.64,71.53,123.54z"/>
  <polygon fill="#7F8294" points="125.89,73.16 64.33,37.62 46.87,47.7 108.43,83.24"/>
  <polygon fill="#9DA0AD" points="116.71,97.57 116.71,170.87 134.17,160.79 134.17,87.49"/>
  <polygon fill="#878A9B" points="151.62,67.86 151.62,150.71 169.08,140.63 169.08,57.78 99.25,17.46 81.79,27.54"/>
</svg>
